<svg width="104" height="104" viewBox="0 0 104 104" fill="none" xmlns="http://www.w3.org/2000/svg">
<circle cx="52" cy="52" r="52" fill="#5DE7F0"/>
<path d="M23.349 74.3294L24.3029 75.9988C24.7525 76.7856 25.3051 77.509 25.9459 78.1498L26.4973 78.7012C27.2487 79.4526 28.113 80.082 29.0588 80.5664L29.6229 80.8553C31.0615 81.5922 32.6547 81.9765 34.271 81.9765H77.898" stroke="black" stroke-width="2.65098"/>
<path d="M66.2745 30.9961H66.6447C67.6508 30.9961 68.6185 31.3824 69.3479 32.0754V32.0754C69.9446 32.6422 70.429 33.3166 70.7756 34.0632L71.5765 35.7882L71.7804 35.2784L72.6262 32.8948C72.809 32.3797 73.0688 31.8952 73.3968 31.4579V31.4579C73.8766 30.8181 74.4924 30.2927 75.1997 29.9194L76.4435 29.2629C77.3318 28.7941 78.3211 28.549 79.3255 28.549V28.549" stroke="black" stroke-width="2.65098" stroke-linejoin="bevel"/>
<path d="M58.5254 31.2C59.2575 31.2 59.8509 30.6066 59.8509 29.8745C59.8509 29.1425 59.2575 28.549 58.5254 28.549V31.2ZM50.9803 31.2H58.5254V28.549H50.9803V31.2Z" fill="black"/>
<path d="M31.1982 63.3495L45.283 24.8381C45.3613 24.624 45.6784 24.6801 45.6784 24.9081V29.6706L46.0863 33.9529L47.0039 39.3568L48.1255 43.9451L49.349 48.3294L50.9804 52.7137L53.9372 58.7294L56.9886 63.3065C57.079 63.442 56.9818 63.6235 56.8189 63.6235H31.3897C31.2481 63.6235 31.1496 63.4826 31.1982 63.3495Z" stroke="black" stroke-width="2.65098"/>
<line x1="50.6745" y1="52" x2="50.6745" y2="20.5961" stroke="black" stroke-width="2.65098"/>
<path d="M58.5254 25.898C59.2575 25.898 59.8509 25.3046 59.8509 24.5725C59.8509 23.8405 59.2575 23.247 58.5254 23.247V25.898ZM50.9803 25.898H58.5254V23.247H50.9803V25.898Z" fill="black"/>
<path d="M58.4235 24.7765L57.0587 27.1162C57.0203 27.1821 57.0218 27.264 57.0628 27.3284L58.4235 29.4667" stroke="black" stroke-width="2.65098" stroke-linecap="round"/>
<path d="M57.2 34.0549C57.2 33.3228 56.6066 32.7294 55.8745 32.7294C55.1425 32.7294 54.549 33.3228 54.549 34.0549H57.2ZM57.2 53.2235V34.0549H54.549V53.2235H57.2Z" fill="black"/>
<path d="M55.8745 34.0549L70.3529 63.6236" stroke="black" stroke-width="2.65098" stroke-linecap="round"/>
<path d="M70.3529 64.949C71.085 64.949 71.6784 64.3556 71.6784 63.6235C71.6784 62.8915 71.085 62.298 70.3529 62.298V64.949ZM70.3529 62.298H61.1764V64.949H70.3529V62.298Z" fill="black"/>
<line x1="50.6745" y1="64.6431" x2="50.6745" y2="68.1098" stroke="black" stroke-width="2.65098"/>
<path d="M39.4589 69.0274H71.5765" stroke="black" stroke-width="2.65098"/>
<path d="M40.3765 68.7216L34.8902 74.2471" stroke="black" stroke-width="2.65098"/>
<path d="M66.4733 68.8112L68.5177 73.5137" stroke="black" stroke-width="2.65098"/>
<line x1="45.3726" y1="69.9451" x2="45.3726" y2="73.6157" stroke="black" stroke-width="2.65098"/>
<path d="M23.2471 74.2274H74.2275" stroke="black" stroke-width="2.65098" stroke-linecap="round"/>
<path d="M74.2007 74.3294L74.2007 76.7502" stroke="black" stroke-width="2.65098" stroke-linecap="round"/>
<path d="M74.2274 76.8784H78.3058" stroke="black" stroke-width="2.65098" stroke-linecap="round"/>
<path d="M78.3059 76.8784L78.102 81.9765" stroke="black" stroke-width="2.65098" stroke-linecap="round"/>
</svg>
