<svg width="97" height="99" viewBox="0 0 97 99" fill="none" xmlns="http://www.w3.org/2000/svg">
<path d="M12 12L9 7.5V4L12.5 2.5L19.5 1H32.5L37.5 2.5L41 4V7.5L37.5 12M12 12V19L13 22L14 24.5L16 26.5L18 28L21 30M12 12L17 10L21.5 9H25.5H30L34 10L37.5 12M37.5 12V19L36 23L34.5 25.5L32.5 27.5L29.5 30M21 30H29.5M21 30H10M21 30L21.5 32L22 33L22.5 34L25 36M29.5 30H40M29.5 30L28.5 32L27.5 34L25 36M10 30L12 33L21 36M10 30L8 31L6 32.5L4 34.5L2.5 36.5L1.5 38L1 39.5V57M10.5 66.5H6L4.5 66L2.5 64L1 61V57M10.5 66.5V63.5M10.5 66.5V91M10.5 40V40.5V57M10.5 63.5H39.5M10.5 63.5V57M39.5 63.5V66.5M39.5 63.5V57M39.5 40V57M40 30L38 33L29 36M40 30L42 31L44 32.5L46 34.5L47.5 36.5L48.5 38L49 39.5V57M39.5 66.5H43.5L44.5 66L47 64L49 61V57M39.5 66.5V91M25 97.7086H10.5V91M25 97.7086H39.5V91M25 97.7086V72M39.5 91H10.5M21 36V39M21 36H25M21 39L17 41V49L25 44M21 39H29M25 44V39M25 44L33 49V41L29 39M29 39V36M29 36H25M49 57H39.5M1 57H10.5" stroke="black" stroke-width="2"/>
<circle cx="73" cy="68" r="18" stroke="black" stroke-width="2"/>
<circle cx="73" cy="68" r="7" stroke="black" stroke-width="2"/>
<rect x="21" y="36" width="8" height="3" fill="black"/>
<line x1="73" y1="45" x2="73" y2="62" stroke="black" stroke-width="2"/>
<line x1="67" y1="68" x2="50" y2="68" stroke="black" stroke-width="2"/>
<line x1="79" y1="68" x2="97" y2="68" stroke="black" stroke-width="2"/>
<line x1="73" y1="74" x2="73" y2="92" stroke="black" stroke-width="2"/>
<path d="M56 85L68.7073 72.2927M90 85L77.2927 72.2927M90 51L77.2927 63.7073M56 51L68.7073 63.7073" stroke="black" stroke-width="2"/>
</svg>
