<svg width="48" height="52" viewBox="0 0 48 52" fill="none" xmlns="http://www.w3.org/2000/svg">
<rect x="12" y="12" width="36" height="40" fill="#BFB8B2"/>
<g clip-path="url(#clip0_61_41)">
<path d="M39.4958 15.5161C39.4199 15.1902 39.0998 14.9888 38.7794 15.0664C38.4601 15.1443 38.2629 15.4715 38.3393 15.7975C38.652 17.1364 38.8108 18.5503 38.8108 20.0004C38.8108 30.3587 30.3725 38.7858 20 38.7858C9.62748 38.7858 1.1892 30.3587 1.1892 20.0004C1.1892 9.64132 9.62748 1.21381 20 1.21381C24.131 1.21381 28.077 2.54851 31.4111 5.07367C31.674 5.27334 32.0471 5.21706 32.2427 4.94779C32.4382 4.67852 32.3831 4.29837 32.1194 4.09871C28.5791 1.41681 24.3882 0 20 0C8.97185 0 0 8.97188 0 20.0004C0 31.0281 8.97185 40 20 40C31.0281 40 40 31.0281 40 20.0004C40 18.4561 39.8302 16.9475 39.4958 15.5161Z" fill="#231F20"/>
<path d="M19.0298 28.3428C18.8769 28.3428 18.7303 28.2811 18.6218 28.1711L7.80331 17.1646C7.57793 16.9353 7.57793 16.5637 7.80331 16.3344C8.02829 16.1051 8.39349 16.1051 8.61886 16.3344L19.0056 26.9015L38.6272 4.53878C38.8395 4.29696 39.2039 4.276 39.4416 4.49203C39.6792 4.70805 39.6998 5.07885 39.4879 5.32067L19.4599 28.1469C19.3542 28.2674 19.2044 28.3383 19.046 28.3428C19.0405 28.3428 19.0353 28.3428 19.0298 28.3428Z" fill="#231F20"/>
</g>
<defs>
<clipPath id="clip0_61_41">
<rect width="40" height="40" fill="white"/>
</clipPath>
</defs>
</svg>
