<svg width="47" height="52" viewBox="0 0 47 52" fill="none" xmlns="http://www.w3.org/2000/svg">
<rect x="12" y="12" width="35" height="40" fill="#BFB8B2"/>
<g clip-path="url(#clip0_62_40)">
<path d="M40.7234 0.214647C40.6363 0.122483 40.5347 0.057542 40.4261 0.0246549C40.3174 -0.00823221 40.2046 -0.00821812 40.096 0.0246961L20.337 5.91974C20.2925 5.9382 20.2495 5.96233 20.2086 5.99179H20.1493L0.884217 0.136047C0.780483 0.108673 0.673531 0.111065 0.570551 0.143061C0.467572 0.175057 0.370953 0.235915 0.287188 0.321545C0.203423 0.407175 0.134453 0.515592 0.0849177 0.639508C0.0353818 0.763423 0.00642725 0.899965 0 1.03995V35.0413C0.000423713 35.251 0.0514822 35.4552 0.145702 35.6237C0.239921 35.7922 0.372354 35.9164 0.523615 35.9779L19.759 43.8969C19.8972 43.9556 20.0457 43.9556 20.1839 43.8969C20.2646 43.9527 20.3529 43.9867 20.4437 43.9968C20.5344 44.0069 20.6258 43.993 20.7124 43.9559L40.4714 36.0172C40.6212 35.9578 40.753 35.8372 40.848 35.6725C40.9429 35.5078 40.9961 35.3074 41 35.1002V0.981002C41.0001 0.833957 40.9753 0.688763 40.9274 0.556127C40.8795 0.423491 40.8098 0.306796 40.7234 0.214647ZM1.48193 2.27136L19.759 7.83235V41.8402L1.48193 34.3207V2.27136ZM39.5181 34.3666L21.241 41.6961V7.63585L39.5181 2.20586V34.3666Z" fill="black"/>
<path d="M25.6049 20.3225C25.6626 20.3225 25.72 20.3137 25.7754 20.2964L35.5667 17.273C35.7155 17.2194 35.8393 17.1063 35.9122 16.9571C35.9851 16.808 36.0016 16.6344 35.9581 16.4725C35.9146 16.3107 35.8146 16.1731 35.6789 16.0885C35.5432 16.0038 35.3823 15.9787 35.2297 16.0183L25.4385 19.0417C25.2981 19.0856 25.1771 19.1823 25.0977 19.3141C25.0182 19.4458 24.9856 19.6039 25.0058 19.7593C25.026 19.9147 25.0977 20.0572 25.2077 20.1606C25.3177 20.264 25.4587 20.3215 25.6049 20.3225Z" fill="black"/>
<path d="M25.6049 25.3225C25.6626 25.3225 25.72 25.3137 25.7754 25.2964L35.5667 22.273C35.7155 22.2194 35.8393 22.1063 35.9122 21.9571C35.9851 21.808 36.0016 21.6344 35.9581 21.4725C35.9146 21.3107 35.8146 21.1731 35.6789 21.0885C35.5432 21.0038 35.3823 20.9787 35.2297 21.0183L25.4385 24.0374C25.2981 24.0813 25.1771 24.178 25.0977 24.3097C25.0182 24.4415 24.9856 24.5995 25.0058 24.7549C25.026 24.9104 25.0977 25.0528 25.2077 25.1562C25.3177 25.2596 25.4587 25.3171 25.6049 25.3181V25.3225Z" fill="black"/>
<path d="M25.6049 30.3225C25.6626 30.3225 25.72 30.3137 25.7754 30.2964L35.5667 27.273C35.7155 27.2194 35.8393 27.1063 35.9122 26.9571C35.9851 26.808 36.0016 26.6344 35.9581 26.4725C35.9146 26.3107 35.8146 26.1731 35.6789 26.0885C35.5432 26.0038 35.3823 25.9787 35.2297 26.0183L25.4385 29.0417C25.2981 29.0856 25.1771 29.1823 25.0977 29.3141C25.0182 29.4458 24.9856 29.6039 25.0058 29.7593C25.026 29.9147 25.0977 30.0572 25.2077 30.1606C25.3177 30.264 25.4587 30.3215 25.6049 30.3225Z" fill="black"/>
</g>
<defs>
<clipPath id="clip0_62_40">
<rect width="41" height="44" fill="white"/>
</clipPath>
</defs>
</svg>
