<svg width="47" height="52" viewBox="0 0 47 52" fill="none" xmlns="http://www.w3.org/2000/svg">
<rect x="12" y="12" width="35" height="40" fill="#BFB8B2"/>
<g clip-path="url(#clip0_62_27)">
<path d="M40.3506 35.0995H32.8369V7.81047C32.8369 5.69218 32.236 3.66065 31.1665 2.16279C30.097 0.664931 28.6464 -0.176558 27.1339 -0.176558H6.4604C6.3511 -0.176558 6.24179 -0.216493 6.12773 -0.229805C5.33717 -0.299837 4.54471 -0.143559 3.7987 0.229494C3.05269 0.602548 2.36877 1.18455 1.78867 1.94C1.25044 2.63807 0.821043 3.48441 0.527438 4.42591C0.233834 5.36741 0.0823583 6.38374 0.0825197 7.41112C0.0825197 7.6759 0.157626 7.92985 0.291317 8.11708C0.425008 8.30431 0.606331 8.4095 0.795398 8.4095H10.0248V35.572C10.001 37.6275 10.538 39.6182 11.5262 41.1382C12.5144 42.6582 13.8794 43.5931 15.3429 43.7521H15.3714H15.4854H35.3795C36.1129 43.7742 36.8422 43.5937 37.5257 43.2209C38.2093 42.8482 38.8337 42.2905 39.3633 41.5797C39.8929 40.8689 40.3173 40.0189 40.6123 39.0783C40.9073 38.1377 41.0671 37.125 41.0825 36.0979C41.0826 35.9645 41.0635 35.8324 41.0265 35.7095C40.9895 35.5866 40.9353 35.4754 40.867 35.3823C40.7988 35.2893 40.718 35.2163 40.6293 35.1677C40.5406 35.1191 40.4458 35.0959 40.3506 35.0995ZM1.57481 6.41274C1.73264 5.25525 2.15063 4.19877 2.76769 3.39764C3.47832 2.48775 4.38409 1.93307 5.34356 1.8202C5.39881 1.82935 5.45465 1.82935 5.5099 1.8202H6.41288C7.25298 2.01661 8.03252 2.55793 8.6527 3.37553C9.27288 4.19313 9.70576 5.2502 9.89648 6.41274H1.57481ZM15.4284 41.7553C14.3281 41.627 13.3041 40.9159 12.565 39.7671C11.8259 38.6183 11.4274 37.118 11.4506 35.572V7.93693C11.4536 6.78854 11.2862 5.6518 10.959 4.59882C10.6317 3.54584 10.1518 2.59962 9.54954 1.8202H27.1339C28.2683 1.8202 29.3562 2.45132 30.1584 3.57471C30.9605 4.6981 31.4111 6.22175 31.4111 7.81047V35.0995H20.6799C20.4909 35.0995 20.3096 35.2047 20.1759 35.3919C20.0422 35.5791 19.9671 35.8331 19.9671 36.0979C19.9638 36.8489 19.8504 37.5909 19.6337 38.2779C19.4171 38.9649 19.1018 39.5822 18.7077 40.0914C18.2709 40.667 17.7547 41.1116 17.1908 41.3977C16.6268 41.6839 16.0271 41.8056 15.4284 41.7553ZM35.389 41.7553H19.5298L19.6772 41.569C20.5863 40.3936 21.1759 38.8127 21.3453 37.0962H39.5712C39.3664 38.4329 38.8364 39.6284 38.0718 40.4783C37.3072 41.3282 36.3555 41.7796 35.3795 41.7553H35.389Z" fill="black"/>
<path d="M14.615 15.32H25.685C25.8481 15.32 26.0045 15.2505 26.1199 15.1267C26.2352 15.0029 26.3 14.835 26.3 14.66C26.3 14.485 26.2352 14.3171 26.1199 14.1933C26.0045 14.0695 25.8481 14 25.685 14H14.615C14.4519 14 14.2955 14.0695 14.1801 14.1933C14.0648 14.3171 14 14.485 14 14.66C14 14.835 14.0648 15.0029 14.1801 15.1267C14.2955 15.2505 14.4519 15.32 14.615 15.32Z" fill="black"/>
<path d="M14.615 20.32H25.685C25.8481 20.32 26.0045 20.2505 26.1199 20.1267C26.2352 20.0029 26.3 19.835 26.3 19.66C26.3 19.485 26.2352 19.3171 26.1199 19.1933C26.0045 19.0695 25.8481 19 25.685 19H14.615C14.4519 19 14.2955 19.0695 14.1801 19.1933C14.0648 19.3171 14 19.485 14 19.66C14 19.835 14.0648 20.0029 14.1801 20.1267C14.2955 20.2505 14.4519 20.32 14.615 20.32Z" fill="black"/>
<path d="M21.3201 25.7401C21.3201 25.565 21.2553 25.3972 21.14 25.2734C21.0246 25.1496 20.8682 25.0801 20.7051 25.0801H14.9651C14.802 25.0801 14.6456 25.1496 14.5302 25.2734C14.4149 25.3972 14.3501 25.565 14.3501 25.7401C14.3501 25.9151 14.4149 26.083 14.5302 26.2068C14.6456 26.3305 14.802 26.4001 14.9651 26.4001H20.7051C20.8682 26.4001 21.0246 26.3305 21.14 26.2068C21.2553 26.083 21.3201 25.9151 21.3201 25.7401Z" fill="black"/>
</g>
<defs>
<clipPath id="clip0_62_27">
<rect width="41" height="44" fill="white"/>
</clipPath>
</defs>
</svg>
