<svg width="62" height="57" viewBox="0 0 62 57" fill="none" xmlns="http://www.w3.org/2000/svg">
<path d="M29.7284 0.733521C33.2277 11.5253 32.3593 35.6918 30.7178 56.4553C37.0115 57.1663 51.8895 54.0782 61.3801 50.0054C48.3642 26.8388 33.7532 2.15418 29.7284 0.733521ZM56.3976 49.6339C53.5137 50.5726 50.5841 51.2608 47.4731 51.3587C45.3743 38.0955 36.3458 15.6999 38.1954 16.8527C41.4713 20.7199 51.0027 36.3366 56.8957 48.3005C57.1309 48.8797 57.1158 49.3998 56.3976 49.6339ZM28.3953 12.0577C27.1708 3.74008 8.70318 36.6298 0.508789 50.3311C4.01984 53.4656 19.5199 56.944 28.0419 56.5031C29.0005 38.9129 30.3144 20.1498 28.3953 12.0577ZM15.63 51.2207C15.4936 52.0344 15.0603 52.2812 14.3953 52.1255C11.9843 51.5644 9.56223 51.0757 7.29148 49.9853C6.09969 49.4128 5.81316 48.6332 6.44176 47.4228C10.3295 40.169 14.2839 33.4039 18.362 27.5437C19.2845 27.8949 17.493 40.0971 15.63 51.2207Z" fill="#FFF"/>
</svg>
