<svg width="274" height="104" viewBox="0 0 274 104" fill="none" xmlns="http://www.w3.org/2000/svg">
<path d="M133.677 38.55L133.552 40.05C133.169 40.0167 132.752 40 132.302 40C131.869 40 131.502 40.0083 131.202 40.025C130.969 41.8583 130.819 43.85 130.752 46H129.002C128.902 45.5667 128.852 44.9917 128.852 44.275C128.852 43.5583 128.869 42.9417 128.902 42.425C128.952 41.8917 129.01 41.3667 129.077 40.85C129.144 40.3333 129.177 40.0333 129.177 39.95C128.944 39.9333 128.394 39.925 127.527 39.925C126.66 39.925 126.06 39.9417 125.727 39.975C123.794 42.575 122.01 44.55 120.377 45.9C118.744 47.2333 117.11 47.9 115.477 47.9C114.677 47.9 114.01 47.6583 113.477 47.175C112.927 46.6917 112.652 46.05 112.652 45.25C112.652 43.7333 113.802 42.35 116.102 41.1C118.419 39.85 121.41 39.0083 125.077 38.575C125.51 37.9083 126.319 36.8833 127.502 35.5C128.685 34.1 129.852 32.8833 131.002 31.85C131.502 30.6833 131.894 29.875 132.177 29.425C132.477 28.9583 132.769 28.725 133.052 28.725C133.335 28.725 133.569 28.8333 133.752 29.05C133.935 29.2667 134.027 29.55 134.027 29.9C134.027 30.2333 133.835 30.7333 133.452 31.4C133.085 32.05 132.702 33.0667 132.302 34.45C131.902 35.8167 131.627 37.1083 131.477 38.325C132.344 38.325 133.077 38.4 133.677 38.55ZM120.927 43.775C122.31 42.4583 123.352 41.2083 124.052 40.025C121.252 40.1917 119.085 40.7167 117.552 41.6C116.035 42.4833 115.277 43.425 115.277 44.425C115.277 44.8583 115.419 45.2 115.702 45.45C116.002 45.7 116.394 45.825 116.877 45.825C118.177 45.825 119.527 45.1417 120.927 43.775ZM129.477 38.325C129.594 37.7583 129.744 37.05 129.927 36.2C130.127 35.3333 130.244 34.825 130.277 34.675C129.477 35.4417 128.919 36.0083 128.602 36.375C128.285 36.725 127.727 37.4083 126.927 38.425C127.21 38.4083 127.552 38.4 127.952 38.4C128.369 38.3833 128.71 38.3667 128.977 38.35C129.244 38.3333 129.41 38.325 129.477 38.325ZM144.653 44.15L144.628 45.2C144.244 45.2167 143.719 45.2333 143.053 45.25C142.386 45.2667 141.919 45.2833 141.653 45.3C141.403 45.3 141.053 45.3167 140.603 45.35C139.836 45.4 139.128 45.5 138.478 45.65C137.661 45.8333 137.219 45.925 137.153 45.925C136.836 45.925 136.511 45.7333 136.178 45.35C135.861 44.9667 135.703 44.5917 135.703 44.225C135.703 43.525 138.203 41.4167 143.203 37.9C142.986 37.8833 142.486 37.875 141.703 37.875C140.936 37.875 139.594 38.0417 137.678 38.375L137.528 37.525C138.661 36.8417 140.778 36.5 143.878 36.5C144.528 36.5 144.986 36.55 145.253 36.65C145.536 36.75 145.678 36.975 145.678 37.325C145.678 37.7083 145.461 38.0583 145.028 38.375C144.944 38.4417 144.803 38.5333 144.603 38.65C144.419 38.7667 144.078 39 143.578 39.35C143.078 39.7 142.569 40.0667 142.053 40.45C141.553 40.8167 140.911 41.375 140.128 42.125C139.344 42.875 138.594 43.7 137.878 44.6C140.178 44.2333 141.728 44.05 142.528 44.05C143.344 44.05 144.053 44.0833 144.653 44.15ZM157.526 43.25L158.051 43.675C157.768 44.375 157.318 44.9667 156.701 45.45C156.101 45.9333 155.551 46.175 155.051 46.175C154.568 46.175 154.185 46.0083 153.901 45.675C153.618 45.325 153.476 44.875 153.476 44.325C153.476 43.775 153.568 43.0667 153.751 42.2C152.968 43.4333 152.126 44.4 151.226 45.1C150.326 45.8 149.568 46.15 148.951 46.15C148.018 46.15 147.551 45.4833 147.551 44.15C147.551 43.0167 147.935 41.5667 148.701 39.8C149.468 38.0333 150.026 37.0083 150.376 36.725L151.576 37.25C150.893 38.35 150.376 39.4333 150.026 40.5C149.676 41.5667 149.501 42.2833 149.501 42.65C149.501 43 149.61 43.2833 149.826 43.5C150.06 43.7167 150.326 43.825 150.626 43.825C151.293 43.825 152.118 43.2167 153.101 42C154.101 40.7667 155.118 38.9333 156.151 36.5L157.426 37.075C157.393 37.2083 157.01 38.175 156.276 39.975C155.56 41.775 155.201 42.8583 155.201 43.225C155.201 43.575 155.276 43.8417 155.426 44.025C155.593 44.2083 155.751 44.3 155.901 44.3C156.068 44.3 156.193 44.2917 156.276 44.275C156.36 44.2583 156.443 44.225 156.526 44.175C156.61 44.125 156.676 44.0833 156.726 44.05C156.793 44.0167 156.868 43.9583 156.951 43.875L157.151 43.7C157.185 43.65 157.243 43.575 157.326 43.475C157.426 43.3583 157.493 43.2833 157.526 43.25ZM166.512 37.15C166.929 37.15 167.271 37.2917 167.537 37.575C167.804 37.8583 167.937 38.225 167.937 38.675C167.937 39.575 167.421 40.525 166.387 41.525L165.787 41.05C166.021 40.5333 166.137 40.1583 166.137 39.925C166.137 39.475 165.887 39.25 165.387 39.25C164.887 39.25 164.412 39.5667 163.962 40.2C163.512 40.8333 162.979 41.8167 162.362 43.15C161.762 44.4667 161.304 45.4 160.987 45.95L159.562 45.325C160.479 43.2417 161.004 42.0167 161.137 41.65C161.587 40.35 161.812 38.7 161.812 36.7L163.212 36.325C163.162 37.4083 163.087 38.25 162.987 38.85C162.887 39.4333 162.646 40.3917 162.262 41.725C163.946 38.675 165.362 37.15 166.512 37.15ZM176.399 43.05L176.974 43.5C176.457 44.2167 175.749 44.8167 174.849 45.3C173.949 45.7667 173.074 46 172.224 46C171.374 46 170.691 45.75 170.174 45.25C169.657 44.75 169.399 44.0917 169.399 43.275C169.399 41.7417 170.207 40.2333 171.824 38.75C173.457 37.2667 175.107 36.525 176.774 36.525C177.874 36.525 178.424 36.9583 178.424 37.825C178.424 38.725 177.841 39.6333 176.674 40.55C175.524 41.4667 173.899 42.3 171.799 43.05C171.949 43.4333 172.182 43.7333 172.499 43.95C172.816 44.1667 173.141 44.275 173.474 44.275C174.191 44.275 175.166 43.8667 176.399 43.05ZM171.674 42.3C173.024 41.8333 174.182 41.25 175.149 40.55C176.116 39.85 176.599 39.2083 176.599 38.625C176.599 38.4083 176.516 38.2167 176.349 38.05C176.182 37.8833 175.991 37.8 175.774 37.8C174.991 37.8 174.141 38.2917 173.224 39.275C172.324 40.2417 171.807 41.25 171.674 42.3ZM202.582 44.175L203.157 44.65C202.457 45.8167 201.549 46.4 200.432 46.4C199.465 46.4 198.982 45.925 198.982 44.975C198.982 44.425 199.215 43.55 199.682 42.35C200.165 41.1333 200.407 40.3333 200.407 39.95C200.407 39.4667 200.099 39.225 199.482 39.225C198.865 39.225 198.024 39.8917 196.957 41.225C195.907 42.5417 195.024 44.075 194.307 45.825L192.832 45.3C193.699 40.95 195.965 35.125 199.632 27.825L200.857 28.225C199.007 31.925 197.682 34.8667 196.882 37.05C196.049 39.3167 195.424 41.1917 195.007 42.675C196.29 40.5583 197.39 39.0917 198.307 38.275C199.24 37.4583 200.049 37.05 200.732 37.05C201.965 37.05 202.582 37.4917 202.582 38.375C202.582 38.925 202.274 39.9083 201.657 41.325C201.04 42.7417 200.732 43.6833 200.732 44.15C200.732 44.6167 200.957 44.85 201.407 44.85C201.64 44.85 202.032 44.625 202.582 44.175ZM211.873 38.575C212.306 39.2917 212.523 40.0833 212.523 40.95C212.523 42.3 212.056 43.5083 211.123 44.575C210.189 45.625 209.089 46.15 207.823 46.15C206.856 46.15 206.098 45.875 205.548 45.325C205.014 44.7583 204.748 43.9833 204.748 43C204.748 41.4167 205.364 40 206.598 38.75C207.831 37.4833 209.214 36.85 210.748 36.85C211.031 36.85 211.231 36.8583 211.348 36.875L211.423 37.7C210.089 37.7 208.981 38.0833 208.098 38.85C207.214 39.6167 206.773 40.6 206.773 41.8C206.773 42.5167 206.948 43.1 207.298 43.55C207.648 43.9833 208.156 44.2 208.823 44.2C209.506 44.2 210.048 43.9 210.448 43.3C210.848 42.7 211.048 42 211.048 41.2C211.048 40.3833 210.889 39.6417 210.573 38.975L211.873 38.575ZM221.024 37.15C221.441 37.15 221.782 37.2917 222.049 37.575C222.316 37.8583 222.449 38.225 222.449 38.675C222.449 39.575 221.932 40.525 220.899 41.525L220.299 41.05C220.532 40.5333 220.649 40.1583 220.649 39.925C220.649 39.475 220.399 39.25 219.899 39.25C219.399 39.25 218.924 39.5667 218.474 40.2C218.024 40.8333 217.491 41.8167 216.874 43.15C216.274 44.4667 215.816 45.4 215.499 45.95L214.074 45.325C214.991 43.2417 215.516 42.0167 215.649 41.65C216.099 40.35 216.324 38.7 216.324 36.7L217.724 36.325C217.674 37.4083 217.599 38.25 217.499 38.85C217.399 39.4333 217.157 40.3917 216.774 41.725C218.457 38.675 219.874 37.15 221.024 37.15ZM229.011 35.4C228.077 35.4 227.611 35.025 227.611 34.275C227.611 33.8583 227.727 33.5083 227.961 33.225C228.194 32.9417 228.494 32.8 228.861 32.8C229.227 32.8 229.527 32.9083 229.761 33.125C229.994 33.3417 230.111 33.625 230.111 33.975C230.111 34.325 230.011 34.65 229.811 34.95C229.611 35.25 229.344 35.4 229.011 35.4ZM228.686 42.775L229.186 43.2C228.786 43.9667 228.252 44.625 227.586 45.175C226.936 45.7083 226.344 45.975 225.811 45.975C224.877 45.975 224.411 45.325 224.411 44.025C224.411 42.4083 225.077 40.3 226.411 37.7C226.711 37.1333 226.886 36.8 226.936 36.7L228.011 37.35C227.661 37.9833 227.227 38.9917 226.711 40.375C226.211 41.7583 225.961 42.65 225.961 43.05C225.961 43.4333 226.044 43.7083 226.211 43.875C226.377 44.0417 226.577 44.125 226.811 44.125C227.261 44.125 227.886 43.675 228.686 42.775ZM240.225 44.15L240.2 45.2C239.817 45.2167 239.292 45.2333 238.625 45.25C237.958 45.2667 237.492 45.2833 237.225 45.3C236.975 45.3 236.625 45.3167 236.175 45.35C235.408 45.4 234.7 45.5 234.05 45.65C233.233 45.8333 232.792 45.925 232.725 45.925C232.408 45.925 232.083 45.7333 231.75 45.35C231.433 44.9667 231.275 44.5917 231.275 44.225C231.275 43.525 233.775 41.4167 238.775 37.9C238.558 37.8833 238.058 37.875 237.275 37.875C236.508 37.875 235.167 38.0417 233.25 38.375L233.1 37.525C234.233 36.8417 236.35 36.5 239.45 36.5C240.1 36.5 240.558 36.55 240.825 36.65C241.108 36.75 241.25 36.975 241.25 37.325C241.25 37.7083 241.033 38.0583 240.6 38.375C240.517 38.4417 240.375 38.5333 240.175 38.65C239.992 38.7667 239.65 39 239.15 39.35C238.65 39.7 238.142 40.0667 237.625 40.45C237.125 40.8167 236.483 41.375 235.7 42.125C234.917 42.875 234.167 43.7 233.45 44.6C235.75 44.2333 237.3 44.05 238.1 44.05C238.917 44.05 239.625 44.0833 240.225 44.15ZM250.199 38.575C250.632 39.2917 250.849 40.0833 250.849 40.95C250.849 42.3 250.382 43.5083 249.449 44.575C248.515 45.625 247.415 46.15 246.149 46.15C245.182 46.15 244.424 45.875 243.874 45.325C243.34 44.7583 243.074 43.9833 243.074 43C243.074 41.4167 243.69 40 244.924 38.75C246.157 37.4833 247.54 36.85 249.074 36.85C249.357 36.85 249.557 36.8583 249.674 36.875L249.749 37.7C248.415 37.7 247.307 38.0833 246.424 38.85C245.54 39.6167 245.099 40.6 245.099 41.8C245.099 42.5167 245.274 43.1 245.624 43.55C245.974 43.9833 246.482 44.2 247.149 44.2C247.832 44.2 248.374 43.9 248.774 43.3C249.174 42.7 249.374 42 249.374 41.2C249.374 40.3833 249.215 39.6417 248.899 38.975L250.199 38.575ZM262.825 42.975L263.35 43.375C262.983 44.1083 262.475 44.725 261.825 45.225C261.192 45.725 260.617 45.975 260.1 45.975C259.583 45.975 259.175 45.825 258.875 45.525C258.575 45.225 258.425 44.85 258.425 44.4C258.425 43.95 258.708 43.1667 259.275 42.05C259.858 40.9167 260.15 40.0833 260.15 39.55C260.15 39.3167 260.05 39.1083 259.85 38.925C259.667 38.725 259.442 38.625 259.175 38.625C258.325 38.625 257.467 39.275 256.6 40.575C255.733 41.8583 254.767 43.7167 253.7 46.15L252.2 45.625C252.517 43.6917 252.967 41.8083 253.55 39.975C254.15 38.125 254.7 36.8 255.2 36L256.225 36.325C255.758 37.5083 255.167 39.55 254.45 42.45C256.75 38.5167 258.867 36.55 260.8 36.55C261.217 36.55 261.558 36.6917 261.825 36.975C262.108 37.2583 262.25 37.5917 262.25 37.975C262.25 38.3583 262.2 38.7083 262.1 39.025C262 39.325 261.683 40.0417 261.15 41.175C260.633 42.2917 260.375 42.9917 260.375 43.275C260.375 43.5583 260.458 43.7833 260.625 43.95C260.792 44.1 260.95 44.175 261.1 44.175C261.25 44.175 261.375 44.15 261.475 44.1C261.575 44.05 261.683 43.975 261.8 43.875C261.933 43.775 262.05 43.6833 262.15 43.6C262.25 43.5167 262.367 43.4083 262.5 43.275C262.65 43.125 262.758 43.025 262.825 42.975ZM273.122 36.225L272.897 37.2C272.613 37.1667 272.247 37.15 271.797 37.15C270.13 37.15 269.297 37.7 269.297 38.8C269.297 39.0333 269.63 39.7167 270.297 40.85C270.98 41.9833 271.322 42.7417 271.322 43.125C271.322 44.025 271.013 44.7333 270.397 45.25C269.797 45.75 268.988 46 267.972 46C266.572 46 265.447 45.225 264.597 43.675L265.547 43C265.78 43.1833 266.03 43.4083 266.297 43.675C266.563 43.925 266.763 44.1 266.897 44.2C267.213 44.4833 267.563 44.625 267.947 44.625C268.33 44.625 268.663 44.4917 268.947 44.225C269.23 43.9417 269.372 43.6 269.372 43.2C269.372 42.7833 269.005 42.0167 268.272 40.9C267.555 39.7833 267.197 39 267.197 38.55C267.197 37.7333 267.538 37.1083 268.222 36.675C268.922 36.2417 269.83 36.025 270.947 36.025C272.08 36.025 272.805 36.0917 273.122 36.225Z" fill="white"/>
<path d="M133.677 58.45L133.552 56.95C133.169 56.9833 132.752 57 132.302 57C131.869 57 131.502 56.9917 131.202 56.975C130.969 55.1417 130.819 53.15 130.752 51L129.002 51C128.902 51.4333 128.852 52.0083 128.852 52.725C128.852 53.4417 128.869 54.0583 128.902 54.575C128.952 55.1083 129.01 55.6333 129.077 56.15C129.144 56.6667 129.177 56.9667 129.177 57.05C128.944 57.0667 128.394 57.075 127.527 57.075C126.66 57.075 126.06 57.0583 125.727 57.025C123.794 54.425 122.01 52.45 120.377 51.1C118.744 49.7667 117.11 49.1 115.477 49.1C114.677 49.1 114.01 49.3417 113.477 49.825C112.927 50.3083 112.652 50.95 112.652 51.75C112.652 53.2667 113.802 54.65 116.102 55.9C118.419 57.15 121.41 57.9917 125.077 58.425C125.51 59.0917 126.319 60.1167 127.502 61.5C128.685 62.9 129.852 64.1167 131.002 65.15C131.502 66.3167 131.894 67.125 132.177 67.575C132.477 68.0417 132.769 68.275 133.052 68.275C133.335 68.275 133.569 68.1667 133.752 67.95C133.935 67.7333 134.027 67.45 134.027 67.1C134.027 66.7667 133.835 66.2667 133.452 65.6C133.085 64.95 132.702 63.9333 132.302 62.55C131.902 61.1833 131.627 59.8917 131.477 58.675C132.344 58.675 133.077 58.6 133.677 58.45ZM120.927 53.225C122.31 54.5417 123.352 55.7917 124.052 56.975C121.252 56.8083 119.085 56.2833 117.552 55.4C116.035 54.5167 115.277 53.575 115.277 52.575C115.277 52.1417 115.419 51.8 115.702 51.55C116.002 51.3 116.394 51.175 116.877 51.175C118.177 51.175 119.527 51.8583 120.927 53.225ZM129.477 58.675C129.594 59.2417 129.744 59.95 129.927 60.8C130.127 61.6667 130.244 62.175 130.277 62.325C129.477 61.5583 128.919 60.9917 128.602 60.625C128.285 60.275 127.727 59.5917 126.927 58.575C127.21 58.5917 127.552 58.6 127.952 58.6C128.369 58.6167 128.71 58.6333 128.977 58.65C129.244 58.6667 129.41 58.675 129.477 58.675ZM144.653 52.85L144.628 51.8C144.244 51.7833 143.719 51.7667 143.053 51.75C142.386 51.7333 141.919 51.7167 141.653 51.7C141.403 51.7 141.053 51.6833 140.603 51.65C139.836 51.6 139.128 51.5 138.478 51.35C137.661 51.1667 137.219 51.075 137.153 51.075C136.836 51.075 136.511 51.2667 136.178 51.65C135.861 52.0333 135.703 52.4083 135.703 52.775C135.703 53.475 138.203 55.5833 143.203 59.1C142.986 59.1167 142.486 59.125 141.703 59.125C140.936 59.125 139.594 58.9583 137.678 58.625L137.528 59.475C138.661 60.1583 140.778 60.5 143.878 60.5C144.528 60.5 144.986 60.45 145.253 60.35C145.536 60.25 145.678 60.025 145.678 59.675C145.678 59.2917 145.461 58.9417 145.028 58.625C144.944 58.5583 144.803 58.4667 144.603 58.35C144.419 58.2333 144.078 58 143.578 57.65C143.078 57.3 142.569 56.9333 142.053 56.55C141.553 56.1833 140.911 55.625 140.128 54.875C139.344 54.125 138.594 53.3 137.878 52.4C140.178 52.7667 141.728 52.95 142.528 52.95C143.344 52.95 144.053 52.9167 144.653 52.85ZM157.526 53.75L158.051 53.325C157.768 52.625 157.318 52.0333 156.701 51.55C156.101 51.0667 155.551 50.825 155.051 50.825C154.568 50.825 154.185 50.9917 153.901 51.325C153.618 51.675 153.476 52.125 153.476 52.675C153.476 53.225 153.568 53.9333 153.751 54.8C152.968 53.5667 152.126 52.6 151.226 51.9C150.326 51.2 149.568 50.85 148.951 50.85C148.018 50.85 147.551 51.5167 147.551 52.85C147.551 53.9833 147.935 55.4333 148.701 57.2C149.468 58.9667 150.026 59.9917 150.376 60.275L151.576 59.75C150.893 58.65 150.376 57.5667 150.026 56.5C149.676 55.4333 149.501 54.7167 149.501 54.35C149.501 54 149.61 53.7167 149.826 53.5C150.06 53.2833 150.326 53.175 150.626 53.175C151.293 53.175 152.118 53.7833 153.101 55C154.101 56.2333 155.118 58.0667 156.151 60.5L157.426 59.925C157.393 59.7917 157.01 58.825 156.276 57.025C155.56 55.225 155.201 54.1417 155.201 53.775C155.201 53.425 155.276 53.1583 155.426 52.975C155.593 52.7917 155.751 52.7 155.901 52.7C156.068 52.7 156.193 52.7083 156.276 52.725C156.36 52.7417 156.443 52.775 156.526 52.825C156.61 52.875 156.676 52.9167 156.726 52.95C156.793 52.9833 156.868 53.0417 156.951 53.125L157.151 53.3C157.185 53.35 157.243 53.425 157.326 53.525C157.426 53.6417 157.493 53.7167 157.526 53.75ZM166.512 59.85C166.929 59.85 167.271 59.7083 167.537 59.425C167.804 59.1417 167.937 58.775 167.937 58.325C167.937 57.425 167.421 56.475 166.387 55.475L165.787 55.95C166.021 56.4667 166.137 56.8417 166.137 57.075C166.137 57.525 165.887 57.75 165.387 57.75C164.887 57.75 164.412 57.4333 163.962 56.8C163.512 56.1667 162.979 55.1833 162.362 53.85C161.762 52.5333 161.304 51.6 160.987 51.05L159.562 51.675C160.479 53.7583 161.004 54.9833 161.137 55.35C161.587 56.65 161.812 58.3 161.812 60.3L163.212 60.675C163.162 59.5917 163.087 58.75 162.987 58.15C162.887 57.5667 162.646 56.6083 162.262 55.275C163.946 58.325 165.362 59.85 166.512 59.85ZM176.399 53.95L176.974 53.5C176.457 52.7833 175.749 52.1833 174.849 51.7C173.949 51.2333 173.074 51 172.224 51C171.374 51 170.691 51.25 170.174 51.75C169.657 52.25 169.399 52.9083 169.399 53.725C169.399 55.2583 170.207 56.7667 171.824 58.25C173.457 59.7333 175.107 60.475 176.774 60.475C177.874 60.475 178.424 60.0417 178.424 59.175C178.424 58.275 177.841 57.3667 176.674 56.45C175.524 55.5333 173.899 54.7 171.799 53.95C171.949 53.5667 172.182 53.2667 172.499 53.05C172.816 52.8333 173.141 52.725 173.474 52.725C174.191 52.725 175.166 53.1333 176.399 53.95ZM171.674 54.7C173.024 55.1667 174.182 55.75 175.149 56.45C176.116 57.15 176.599 57.7917 176.599 58.375C176.599 58.5917 176.516 58.7833 176.349 58.95C176.182 59.1167 175.991 59.2 175.774 59.2C174.991 59.2 174.141 58.7083 173.224 57.725C172.324 56.7583 171.807 55.75 171.674 54.7ZM202.582 52.825L203.157 52.35C202.457 51.1833 201.549 50.6 200.432 50.6C199.465 50.6 198.982 51.075 198.982 52.025C198.982 52.575 199.215 53.45 199.682 54.65C200.165 55.8667 200.407 56.6667 200.407 57.05C200.407 57.5333 200.099 57.775 199.482 57.775C198.865 57.775 198.024 57.1083 196.957 55.775C195.907 54.4583 195.024 52.925 194.307 51.175L192.832 51.7C193.699 56.05 195.965 61.875 199.632 69.175L200.857 68.775C199.007 65.075 197.682 62.1333 196.882 59.95C196.049 57.6833 195.424 55.8083 195.007 54.325C196.29 56.4417 197.39 57.9083 198.307 58.725C199.24 59.5417 200.049 59.95 200.732 59.95C201.965 59.95 202.582 59.5083 202.582 58.625C202.582 58.075 202.274 57.0917 201.657 55.675C201.04 54.2583 200.732 53.3167 200.732 52.85C200.732 52.3833 200.957 52.15 201.407 52.15C201.64 52.15 202.032 52.375 202.582 52.825ZM211.873 58.425C212.306 57.7083 212.523 56.9167 212.523 56.05C212.523 54.7 212.056 53.4917 211.123 52.425C210.189 51.375 209.089 50.85 207.823 50.85C206.856 50.85 206.098 51.125 205.548 51.675C205.014 52.2417 204.748 53.0167 204.748 54C204.748 55.5833 205.364 57 206.598 58.25C207.831 59.5167 209.214 60.15 210.748 60.15C211.031 60.15 211.231 60.1417 211.348 60.125L211.423 59.3C210.089 59.3 208.981 58.9167 208.098 58.15C207.214 57.3833 206.773 56.4 206.773 55.2C206.773 54.4833 206.948 53.9 207.298 53.45C207.648 53.0167 208.156 52.8 208.823 52.8C209.506 52.8 210.048 53.1 210.448 53.7C210.848 54.3 211.048 55 211.048 55.8C211.048 56.6167 210.889 57.3583 210.573 58.025L211.873 58.425ZM221.024 59.85C221.441 59.85 221.782 59.7083 222.049 59.425C222.316 59.1417 222.449 58.775 222.449 58.325C222.449 57.425 221.932 56.475 220.899 55.475L220.299 55.95C220.532 56.4667 220.649 56.8417 220.649 57.075C220.649 57.525 220.399 57.75 219.899 57.75C219.399 57.75 218.924 57.4333 218.474 56.8C218.024 56.1667 217.491 55.1833 216.874 53.85C216.274 52.5333 215.816 51.6 215.499 51.05L214.074 51.675C214.991 53.7583 215.516 54.9833 215.649 55.35C216.099 56.65 216.324 58.3 216.324 60.3L217.724 60.675C217.674 59.5917 217.599 58.75 217.499 58.15C217.399 57.5667 217.157 56.6083 216.774 55.275C218.457 58.325 219.874 59.85 221.024 59.85ZM229.011 61.6C228.077 61.6 227.611 61.975 227.611 62.725C227.611 63.1417 227.727 63.4917 227.961 63.775C228.194 64.0583 228.494 64.2 228.861 64.2C229.227 64.2 229.527 64.0917 229.761 63.875C229.994 63.6583 230.111 63.375 230.111 63.025C230.111 62.675 230.011 62.35 229.811 62.05C229.611 61.75 229.344 61.6 229.011 61.6ZM228.686 54.225L229.186 53.8C228.786 53.0333 228.252 52.375 227.586 51.825C226.936 51.2917 226.344 51.025 225.811 51.025C224.877 51.025 224.411 51.675 224.411 52.975C224.411 54.5917 225.077 56.7 226.411 59.3C226.711 59.8667 226.886 60.2 226.936 60.3L228.011 59.65C227.661 59.0167 227.227 58.0083 226.711 56.625C226.211 55.2417 225.961 54.35 225.961 53.95C225.961 53.5667 226.044 53.2917 226.211 53.125C226.377 52.9583 226.577 52.875 226.811 52.875C227.261 52.875 227.886 53.325 228.686 54.225ZM240.225 52.85L240.2 51.8C239.817 51.7833 239.292 51.7667 238.625 51.75C237.958 51.7333 237.492 51.7167 237.225 51.7C236.975 51.7 236.625 51.6833 236.175 51.65C235.408 51.6 234.7 51.5 234.05 51.35C233.233 51.1667 232.792 51.075 232.725 51.075C232.408 51.075 232.083 51.2667 231.75 51.65C231.433 52.0333 231.275 52.4083 231.275 52.775C231.275 53.475 233.775 55.5833 238.775 59.1C238.558 59.1167 238.058 59.125 237.275 59.125C236.508 59.125 235.167 58.9583 233.25 58.625L233.1 59.475C234.233 60.1583 236.35 60.5 239.45 60.5C240.1 60.5 240.558 60.45 240.825 60.35C241.108 60.25 241.25 60.025 241.25 59.675C241.25 59.2917 241.033 58.9417 240.6 58.625C240.517 58.5583 240.375 58.4667 240.175 58.35C239.992 58.2333 239.65 58 239.15 57.65C238.65 57.3 238.142 56.9333 237.625 56.55C237.125 56.1833 236.483 55.625 235.7 54.875C234.917 54.125 234.167 53.3 233.45 52.4C235.75 52.7667 237.3 52.95 238.1 52.95C238.917 52.95 239.625 52.9167 240.225 52.85ZM250.199 58.425C250.632 57.7083 250.849 56.9167 250.849 56.05C250.849 54.7 250.382 53.4917 249.449 52.425C248.515 51.375 247.415 50.85 246.149 50.85C245.182 50.85 244.424 51.125 243.874 51.675C243.34 52.2417 243.074 53.0167 243.074 54C243.074 55.5833 243.69 57 244.924 58.25C246.157 59.5167 247.54 60.15 249.074 60.15C249.357 60.15 249.557 60.1417 249.674 60.125L249.749 59.3C248.415 59.3 247.307 58.9167 246.424 58.15C245.54 57.3833 245.099 56.4 245.099 55.2C245.099 54.4833 245.274 53.9 245.624 53.45C245.974 53.0167 246.482 52.8 247.149 52.8C247.832 52.8 248.374 53.1 248.774 53.7C249.174 54.3 249.374 55 249.374 55.8C249.374 56.6167 249.215 57.3583 248.899 58.025L250.199 58.425ZM262.825 54.025L263.35 53.625C262.983 52.8917 262.475 52.275 261.825 51.775C261.192 51.275 260.617 51.025 260.1 51.025C259.583 51.025 259.175 51.175 258.875 51.475C258.575 51.775 258.425 52.15 258.425 52.6C258.425 53.05 258.708 53.8333 259.275 54.95C259.858 56.0833 260.15 56.9167 260.15 57.45C260.15 57.6833 260.05 57.8917 259.85 58.075C259.667 58.275 259.442 58.375 259.175 58.375C258.325 58.375 257.467 57.725 256.6 56.425C255.733 55.1417 254.767 53.2833 253.7 50.85L252.2 51.375C252.517 53.3083 252.967 55.1917 253.55 57.025C254.15 58.875 254.7 60.2 255.2 61L256.225 60.675C255.758 59.4917 255.167 57.45 254.45 54.55C256.75 58.4833 258.867 60.45 260.8 60.45C261.217 60.45 261.558 60.3083 261.825 60.025C262.108 59.7417 262.25 59.4083 262.25 59.025C262.25 58.6417 262.2 58.2917 262.1 57.975C262 57.675 261.683 56.9583 261.15 55.825C260.633 54.7083 260.375 54.0083 260.375 53.725C260.375 53.4417 260.458 53.2167 260.625 53.05C260.792 52.9 260.95 52.825 261.1 52.825C261.25 52.825 261.375 52.85 261.475 52.9C261.575 52.95 261.683 53.025 261.8 53.125C261.933 53.225 262.05 53.3167 262.15 53.4C262.25 53.4833 262.367 53.5917 262.5 53.725C262.65 53.875 262.758 53.975 262.825 54.025ZM273.122 60.775L272.897 59.8C272.613 59.8333 272.247 59.85 271.797 59.85C270.13 59.85 269.297 59.3 269.297 58.2C269.297 57.9667 269.63 57.2833 270.297 56.15C270.98 55.0167 271.322 54.2583 271.322 53.875C271.322 52.975 271.013 52.2667 270.397 51.75C269.797 51.25 268.988 51 267.972 51C266.572 51 265.447 51.775 264.597 53.325L265.547 54C265.78 53.8167 266.03 53.5917 266.297 53.325C266.563 53.075 266.763 52.9 266.897 52.8C267.213 52.5167 267.563 52.375 267.947 52.375C268.33 52.375 268.663 52.5083 268.947 52.775C269.23 53.0583 269.372 53.4 269.372 53.8C269.372 54.2167 269.005 54.9833 268.272 56.1C267.555 57.2167 267.197 58 267.197 58.45C267.197 59.2667 267.538 59.8917 268.222 60.325C268.922 60.7583 269.83 60.975 270.947 60.975C272.08 60.975 272.805 60.9083 273.122 60.775Z" fill="url(#paint0_linear_4_57)"/>
<path d="M153.347 64.4375H154.737L156.628 69.4062C156.737 69.6979 156.839 69.9792 156.932 70.25C157.026 70.5156 157.11 70.7708 157.182 71.0156C157.255 71.2604 157.313 71.4974 157.354 71.7266H157.409C157.482 71.4661 157.586 71.125 157.722 70.7031C157.857 70.276 158.003 69.8411 158.159 69.3984L159.948 64.4375H161.347L157.62 74.2578C157.422 74.7839 157.19 75.2422 156.925 75.6328C156.664 76.0234 156.347 76.3229 155.972 76.5312C155.597 76.7448 155.143 76.8516 154.612 76.8516C154.367 76.8516 154.151 76.8359 153.964 76.8047C153.776 76.7786 153.615 76.7474 153.479 76.7109V75.6719C153.594 75.6979 153.732 75.7214 153.893 75.7422C154.06 75.763 154.232 75.7734 154.409 75.7734C154.732 75.7734 155.011 75.7109 155.245 75.5859C155.485 75.4661 155.69 75.2891 155.862 75.0547C156.034 74.8203 156.182 74.5417 156.307 74.2188L156.776 73.0156L153.347 64.4375ZM166.557 64.2969C167.578 64.2969 168.336 64.526 168.83 64.9844C169.325 65.4427 169.572 66.1745 169.572 67.1797V73H168.627L168.377 71.7344H168.315C168.075 72.0469 167.825 72.3099 167.565 72.5234C167.304 72.7318 167.002 72.8906 166.658 73C166.32 73.1042 165.903 73.1562 165.408 73.1562C164.888 73.1562 164.424 73.0651 164.018 72.8828C163.617 72.7005 163.299 72.4245 163.065 72.0547C162.836 71.6849 162.721 71.2161 162.721 70.6484C162.721 69.7943 163.059 69.138 163.737 68.6797C164.414 68.2214 165.445 67.9714 166.83 67.9297L168.307 67.8672V67.3438C168.307 66.6042 168.148 66.0859 167.83 65.7891C167.513 65.4922 167.065 65.3438 166.487 65.3438C166.039 65.3438 165.612 65.4089 165.205 65.5391C164.799 65.6693 164.414 65.8229 164.049 66L163.651 65.0156C164.036 64.8177 164.479 64.6484 164.979 64.5078C165.479 64.3672 166.005 64.2969 166.557 64.2969ZM168.291 68.7812L166.987 68.8359C165.919 68.8776 165.166 69.0521 164.729 69.3594C164.291 69.6667 164.072 70.1016 164.072 70.6641C164.072 71.1536 164.221 71.5156 164.518 71.75C164.815 71.9844 165.208 72.1016 165.697 72.1016C166.458 72.1016 167.08 71.8906 167.565 71.4688C168.049 71.0469 168.291 70.4141 168.291 69.5703V68.7812ZM176.314 73.1562C175.543 73.1562 174.864 72.9974 174.275 72.6797C173.686 72.362 173.228 71.8776 172.9 71.2266C172.572 70.5755 172.408 69.7552 172.408 68.7656C172.408 67.7292 172.58 66.8828 172.923 66.2266C173.272 65.5651 173.752 65.0755 174.361 64.7578C174.97 64.4401 175.663 64.2812 176.439 64.2812C176.866 64.2812 177.278 64.3255 177.673 64.4141C178.074 64.4974 178.403 64.6042 178.658 64.7344L178.267 65.8203C178.007 65.7161 177.705 65.6224 177.361 65.5391C177.022 65.4557 176.705 65.4141 176.408 65.4141C175.814 65.4141 175.319 65.5417 174.923 65.7969C174.533 66.0521 174.239 66.4271 174.041 66.9219C173.848 67.4167 173.752 68.026 173.752 68.75C173.752 69.4427 173.845 70.0339 174.033 70.5234C174.226 71.013 174.509 71.388 174.884 71.6484C175.265 71.9036 175.739 72.0312 176.306 72.0312C176.759 72.0312 177.168 71.9844 177.533 71.8906C177.897 71.7917 178.228 71.6771 178.525 71.5469V72.7031C178.239 72.849 177.918 72.9609 177.564 73.0391C177.215 73.1172 176.798 73.1562 176.314 73.1562ZM182.493 60.8438V64.4766C182.493 64.6849 182.488 64.8958 182.477 65.1094C182.467 65.3177 182.449 65.5104 182.423 65.6875H182.509C182.686 65.3854 182.91 65.1328 183.181 64.9297C183.457 64.7214 183.769 64.5651 184.118 64.4609C184.467 64.3516 184.837 64.2969 185.227 64.2969C185.915 64.2969 186.488 64.4062 186.946 64.625C187.41 64.8438 187.756 65.1823 187.985 65.6406C188.22 66.099 188.337 66.6927 188.337 67.4219V73H187.056V67.5078C187.056 66.7943 186.892 66.2604 186.563 65.9062C186.241 65.5521 185.743 65.375 185.071 65.375C184.436 65.375 183.928 65.4974 183.548 65.7422C183.173 65.9818 182.902 66.3359 182.735 66.8047C182.574 67.2734 182.493 67.8464 182.493 68.5234V73H181.196V60.8438H182.493ZM194.414 72.0938C194.628 72.0938 194.847 72.0755 195.071 72.0391C195.295 72.0026 195.477 71.9583 195.618 71.9062V72.9141C195.466 72.9818 195.256 73.0391 194.985 73.0859C194.719 73.1328 194.459 73.1562 194.203 73.1562C193.75 73.1562 193.339 73.0781 192.969 72.9219C192.599 72.7604 192.302 72.4896 192.078 72.1094C191.86 71.7292 191.75 71.2031 191.75 70.5312V65.4531H190.532V64.8203L191.758 64.3125L192.274 62.4531H193.055V64.4375H195.563V65.4531H193.055V70.4922C193.055 71.0286 193.177 71.4297 193.422 71.6953C193.672 71.9609 194.003 72.0938 194.414 72.0938ZM206.218 73.1562C205.447 73.1562 204.767 72.9974 204.179 72.6797C203.59 72.362 203.132 71.8776 202.804 71.2266C202.476 70.5755 202.312 69.7552 202.312 68.7656C202.312 67.7292 202.483 66.8828 202.827 66.2266C203.176 65.5651 203.655 65.0755 204.265 64.7578C204.874 64.4401 205.567 64.2812 206.343 64.2812C206.77 64.2812 207.181 64.3255 207.577 64.4141C207.978 64.4974 208.306 64.6042 208.562 64.7344L208.171 65.8203C207.911 65.7161 207.608 65.6224 207.265 65.5391C206.926 65.4557 206.608 65.4141 206.312 65.4141C205.718 65.4141 205.223 65.5417 204.827 65.7969C204.437 66.0521 204.142 66.4271 203.944 66.9219C203.752 67.4167 203.655 68.026 203.655 68.75C203.655 69.4427 203.749 70.0339 203.937 70.5234C204.129 71.013 204.413 71.388 204.788 71.6484C205.168 71.9036 205.642 72.0312 206.21 72.0312C206.663 72.0312 207.072 71.9844 207.437 71.8906C207.801 71.7917 208.132 71.6771 208.429 71.5469V72.7031C208.142 72.849 207.822 72.9609 207.468 73.0391C207.119 73.1172 206.702 73.1562 206.218 73.1562ZM212.405 73H211.1V60.8438H212.405V73ZM222.857 64.4375V73H221.795L221.607 71.7969H221.537C221.36 72.0938 221.131 72.3438 220.849 72.5469C220.568 72.75 220.25 72.901 219.896 73C219.547 73.1042 219.175 73.1562 218.779 73.1562C218.102 73.1562 217.534 73.0469 217.076 72.8281C216.618 72.6094 216.271 72.2708 216.037 71.8125C215.808 71.3542 215.693 70.7656 215.693 70.0469V64.4375H217.006V69.9531C217.006 70.6667 217.167 71.2005 217.49 71.5547C217.813 71.9036 218.305 72.0781 218.967 72.0781C219.602 72.0781 220.107 71.9583 220.482 71.7188C220.862 71.4792 221.136 71.1276 221.302 70.6641C221.469 70.1953 221.552 69.6224 221.552 68.9453V64.4375H222.857ZM227.536 60.8438V63.8828C227.536 64.2318 227.526 64.5703 227.505 64.8984C227.489 65.2266 227.476 65.4818 227.466 65.6641H227.536C227.771 65.2786 228.109 64.9531 228.552 64.6875C228.995 64.4219 229.56 64.2891 230.247 64.2891C231.32 64.2891 232.174 64.6615 232.81 65.4062C233.45 66.1458 233.771 67.2474 233.771 68.7109C233.771 69.6745 233.625 70.487 233.333 71.1484C233.041 71.8099 232.63 72.3099 232.099 72.6484C231.568 72.987 230.94 73.1562 230.216 73.1562C229.539 73.1562 228.982 73.0312 228.544 72.7812C228.112 72.526 227.778 72.2161 227.544 71.8516H227.443L227.177 73H226.239V60.8438H227.536ZM230.036 65.375C229.416 65.375 228.924 65.4974 228.56 65.7422C228.195 65.9818 227.932 66.3464 227.771 66.8359C227.614 67.3203 227.536 67.9349 227.536 68.6797V68.75C227.536 69.8281 227.716 70.6536 228.075 71.2266C228.435 71.7943 229.088 72.0781 230.036 72.0781C230.833 72.0781 231.429 71.7865 231.825 71.2031C232.226 70.6198 232.427 69.7865 232.427 68.7031C232.427 67.599 232.229 66.7682 231.833 66.2109C231.443 65.6536 230.844 65.375 230.036 65.375Z" fill="white"/>
<path d="M153.347 90.5625L154.737 90.5625L156.628 85.5938C156.737 85.3021 156.839 85.0208 156.933 84.75C157.026 84.4844 157.11 84.2292 157.183 83.9844C157.255 83.7396 157.313 83.5026 157.354 83.2734L157.409 83.2734C157.482 83.5339 157.586 83.875 157.722 84.2969C157.857 84.724 158.003 85.1589 158.159 85.6016L159.948 90.5625L161.347 90.5625L157.62 80.7422C157.422 80.2161 157.19 79.7578 156.925 79.3672C156.664 78.9766 156.347 78.6771 155.972 78.4688C155.597 78.2552 155.143 78.1484 154.612 78.1484C154.367 78.1484 154.151 78.1641 153.964 78.1953C153.776 78.2214 153.615 78.2526 153.479 78.2891L153.479 79.3281C153.594 79.3021 153.732 79.2786 153.893 79.2578C154.06 79.237 154.232 79.2266 154.409 79.2266C154.732 79.2266 155.011 79.2891 155.245 79.4141C155.485 79.5339 155.69 79.7109 155.862 79.9453C156.034 80.1797 156.183 80.4583 156.308 80.7813L156.776 81.9844L153.347 90.5625ZM166.557 90.7031C167.578 90.7031 168.336 90.474 168.83 90.0156C169.325 89.5573 169.572 88.8255 169.572 87.8203L169.572 82L168.627 82L168.377 83.2656L168.315 83.2656C168.075 82.9531 167.825 82.6901 167.565 82.4766C167.304 82.2682 167.002 82.1094 166.658 82C166.32 81.8958 165.903 81.8438 165.408 81.8438C164.888 81.8438 164.424 81.9349 164.018 82.1172C163.617 82.2995 163.299 82.5755 163.065 82.9453C162.836 83.3151 162.721 83.7839 162.721 84.3516C162.721 85.2057 163.059 85.862 163.737 86.3203C164.414 86.7786 165.445 87.0286 166.83 87.0703L168.307 87.1328L168.307 87.6563C168.307 88.3958 168.148 88.9141 167.83 89.2109C167.513 89.5078 167.065 89.6563 166.487 89.6563C166.039 89.6563 165.612 89.5911 165.205 89.4609C164.799 89.3307 164.414 89.1771 164.049 89L163.651 89.9844C164.036 90.1823 164.479 90.3516 164.979 90.4922C165.479 90.6328 166.005 90.7031 166.557 90.7031ZM168.291 86.2188L166.987 86.1641C165.919 86.1224 165.166 85.9479 164.729 85.6406C164.291 85.3333 164.072 84.8984 164.072 84.3359C164.072 83.8464 164.221 83.4844 164.518 83.25C164.815 83.0156 165.208 82.8984 165.697 82.8984C166.458 82.8984 167.08 83.1094 167.565 83.5313C168.049 83.9531 168.291 84.5859 168.291 85.4297L168.291 86.2188ZM176.314 81.8438C175.543 81.8438 174.864 82.0026 174.275 82.3203C173.686 82.638 173.228 83.1224 172.9 83.7734C172.572 84.4245 172.408 85.2448 172.408 86.2344C172.408 87.2708 172.58 88.1172 172.923 88.7734C173.272 89.4349 173.752 89.9245 174.361 90.2422C174.97 90.5599 175.663 90.7188 176.439 90.7188C176.866 90.7188 177.278 90.6745 177.673 90.5859C178.074 90.5026 178.403 90.3958 178.658 90.2656L178.267 89.1797C178.007 89.2839 177.705 89.3776 177.361 89.4609C177.022 89.5443 176.705 89.5859 176.408 89.5859C175.814 89.5859 175.319 89.4583 174.923 89.2031C174.533 88.9479 174.239 88.5729 174.041 88.0781C173.848 87.5833 173.752 86.974 173.752 86.25C173.752 85.5573 173.845 84.9661 174.033 84.4766C174.226 83.987 174.509 83.612 174.884 83.3516C175.265 83.0964 175.739 82.9688 176.306 82.9688C176.759 82.9688 177.168 83.0156 177.533 83.1094C177.897 83.2083 178.228 83.3229 178.525 83.4531L178.525 82.2969C178.239 82.151 177.918 82.0391 177.564 81.9609C177.215 81.8828 176.798 81.8438 176.314 81.8438ZM182.493 94.1563L182.493 90.5234C182.493 90.3151 182.488 90.1042 182.478 89.8906C182.467 89.6823 182.449 89.4896 182.423 89.3125L182.509 89.3125C182.686 89.6146 182.91 89.8672 183.181 90.0703C183.457 90.2786 183.769 90.4349 184.118 90.5391C184.467 90.6484 184.837 90.7031 185.228 90.7031C185.915 90.7031 186.488 90.5938 186.946 90.375C187.41 90.1563 187.756 89.8177 187.985 89.3594C188.22 88.901 188.337 88.3073 188.337 87.5781L188.337 82L187.056 82L187.056 87.4922C187.056 88.2057 186.892 88.7396 186.563 89.0938C186.241 89.4479 185.743 89.625 185.071 89.625C184.436 89.625 183.928 89.5026 183.548 89.2578C183.173 89.0182 182.902 88.6641 182.735 88.1953C182.574 87.7266 182.493 87.1536 182.493 86.4766L182.493 82L181.196 82L181.196 94.1563L182.493 94.1563ZM194.414 82.9063C194.628 82.9063 194.847 82.9245 195.071 82.9609C195.295 82.9974 195.477 83.0417 195.618 83.0938L195.618 82.0859C195.466 82.0182 195.256 81.9609 194.985 81.9141C194.719 81.8672 194.459 81.8438 194.203 81.8438C193.75 81.8438 193.339 81.9219 192.969 82.0781C192.599 82.2396 192.302 82.5104 192.078 82.8906C191.86 83.2708 191.75 83.7969 191.75 84.4688L191.75 89.5469L190.532 89.5469L190.532 90.1797L191.758 90.6875L192.274 92.5469L193.055 92.5469L193.055 90.5625L195.563 90.5625L195.563 89.5469L193.055 89.5469L193.055 84.5078C193.055 83.9714 193.177 83.5703 193.422 83.3047C193.672 83.0391 194.003 82.9063 194.414 82.9063ZM206.218 81.8438C205.447 81.8438 204.767 82.0026 204.179 82.3203C203.59 82.638 203.132 83.1224 202.804 83.7734C202.476 84.4245 202.312 85.2448 202.312 86.2344C202.312 87.2708 202.483 88.1172 202.827 88.7734C203.176 89.4349 203.655 89.9245 204.265 90.2422C204.874 90.5599 205.567 90.7188 206.343 90.7188C206.77 90.7188 207.181 90.6745 207.577 90.5859C207.978 90.5026 208.306 90.3958 208.562 90.2656L208.171 89.1797C207.911 89.2839 207.608 89.3776 207.265 89.4609C206.926 89.5443 206.608 89.5859 206.312 89.5859C205.718 89.5859 205.223 89.4583 204.827 89.2031C204.437 88.9479 204.142 88.5729 203.944 88.0781C203.752 87.5833 203.655 86.974 203.655 86.25C203.655 85.5573 203.749 84.9662 203.937 84.4766C204.129 83.987 204.413 83.612 204.788 83.3516C205.168 83.0964 205.642 82.9688 206.21 82.9688C206.663 82.9688 207.072 83.0156 207.437 83.1094C207.801 83.2083 208.132 83.3229 208.429 83.4531L208.429 82.2969C208.142 82.151 207.822 82.0391 207.468 81.9609C207.119 81.8828 206.702 81.8438 206.218 81.8438ZM212.405 82L211.1 82L211.1 94.1563L212.405 94.1563L212.405 82ZM222.857 90.5625L222.857 82L221.795 82L221.607 83.2031L221.537 83.2031C221.36 82.9063 221.131 82.6563 220.849 82.4531C220.568 82.25 220.25 82.099 219.896 82C219.547 81.8958 219.175 81.8438 218.779 81.8438C218.102 81.8438 217.534 81.9531 217.076 82.1719C216.618 82.3906 216.271 82.7292 216.037 83.1875C215.808 83.6458 215.693 84.2344 215.693 84.9531L215.693 90.5625L217.006 90.5625L217.006 85.0469C217.006 84.3333 217.167 83.7995 217.49 83.4453C217.813 83.0964 218.305 82.9219 218.967 82.9219C219.602 82.9219 220.107 83.0417 220.482 83.2813C220.862 83.5208 221.136 83.8724 221.302 84.3359C221.469 84.8047 221.552 85.3776 221.552 86.0547L221.552 90.5625L222.857 90.5625ZM227.536 94.1563L227.536 91.1172C227.536 90.7682 227.526 90.4297 227.505 90.1016C227.489 89.7734 227.476 89.5182 227.466 89.3359L227.536 89.3359C227.771 89.7214 228.109 90.0469 228.552 90.3125C228.995 90.5781 229.56 90.7109 230.247 90.7109C231.32 90.7109 232.174 90.3385 232.81 89.5938C233.45 88.8542 233.771 87.7526 233.771 86.2891C233.771 85.3255 233.625 84.513 233.333 83.8516C233.041 83.1901 232.63 82.6901 232.099 82.3516C231.568 82.013 230.94 81.8438 230.216 81.8438C229.539 81.8438 228.982 81.9688 228.544 82.2188C228.112 82.474 227.778 82.7839 227.544 83.1484L227.443 83.1484L227.177 82L226.239 82L226.239 94.1563L227.536 94.1563ZM230.036 89.625C229.416 89.625 228.924 89.5026 228.56 89.2578C228.195 89.0182 227.932 88.6537 227.771 88.1641C227.614 87.6797 227.536 87.0651 227.536 86.3203L227.536 86.25C227.536 85.1719 227.716 84.3464 228.075 83.7734C228.435 83.2057 229.088 82.9219 230.036 82.9219C230.833 82.9219 231.429 83.2135 231.825 83.7969C232.226 84.3802 232.427 85.2135 232.427 86.2969C232.427 87.401 232.229 88.2318 231.833 88.7891C231.443 89.3464 230.844 89.625 230.036 89.625Z" fill="url(#paint1_linear_4_57)"/>
<circle cx="52" cy="52" r="52" fill="#5DE7F0"/>
<path d="M23.349 74.3294L24.3029 75.9988C24.7525 76.7856 25.3051 77.509 25.9459 78.1498L26.4973 78.7012C27.2487 79.4526 28.113 80.082 29.0588 80.5664L29.6229 80.8553C31.0615 81.5922 32.6547 81.9765 34.271 81.9765H77.898" stroke="black" stroke-width="2.65098"/>
<path d="M66.2745 30.9961H66.6447C67.6508 30.9961 68.6185 31.3824 69.3479 32.0754V32.0754C69.9446 32.6422 70.429 33.3166 70.7756 34.0632L71.5765 35.7882L71.7804 35.2784L72.6262 32.8948C72.809 32.3797 73.0688 31.8952 73.3968 31.4579V31.4579C73.8766 30.8181 74.4924 30.2927 75.1997 29.9194L76.4435 29.2629C77.3318 28.7941 78.3211 28.549 79.3255 28.549V28.549" stroke="black" stroke-width="2.65098" stroke-linejoin="bevel"/>
<path d="M58.5254 31.2C59.2575 31.2 59.8509 30.6066 59.8509 29.8745C59.8509 29.1425 59.2575 28.549 58.5254 28.549V31.2ZM50.9803 31.2H58.5254V28.549H50.9803V31.2Z" fill="black"/>
<path d="M31.1982 63.3495L45.283 24.8381C45.3613 24.624 45.6784 24.6801 45.6784 24.9081V29.6706L46.0863 33.9529L47.0039 39.3568L48.1255 43.9451L49.349 48.3294L50.9804 52.7137L53.9372 58.7294L56.9886 63.3065C57.079 63.442 56.9818 63.6235 56.8189 63.6235H31.3897C31.2481 63.6235 31.1496 63.4826 31.1982 63.3495Z" stroke="black" stroke-width="2.65098"/>
<line x1="50.6745" y1="52" x2="50.6745" y2="20.5961" stroke="black" stroke-width="2.65098"/>
<path d="M58.5254 25.898C59.2575 25.898 59.8509 25.3046 59.8509 24.5725C59.8509 23.8405 59.2575 23.247 58.5254 23.247V25.898ZM50.9803 25.898H58.5254V23.247H50.9803V25.898Z" fill="black"/>
<path d="M58.4235 24.7765L57.0587 27.1162C57.0203 27.1821 57.0218 27.264 57.0628 27.3284L58.4235 29.4667" stroke="black" stroke-width="2.65098" stroke-linecap="round"/>
<path d="M57.2 34.0549C57.2 33.3228 56.6066 32.7294 55.8745 32.7294C55.1425 32.7294 54.549 33.3228 54.549 34.0549H57.2ZM57.2 53.2235V34.0549H54.549V53.2235H57.2Z" fill="black"/>
<path d="M55.8745 34.0549L70.3529 63.6236" stroke="black" stroke-width="2.65098" stroke-linecap="round"/>
<path d="M70.3529 64.949C71.085 64.949 71.6784 64.3556 71.6784 63.6235C71.6784 62.8915 71.085 62.298 70.3529 62.298V64.949ZM70.3529 62.298H61.1764V64.949H70.3529V62.298Z" fill="black"/>
<line x1="50.6745" y1="64.6431" x2="50.6745" y2="68.1098" stroke="black" stroke-width="2.65098"/>
<path d="M39.4589 69.0274H71.5765" stroke="black" stroke-width="2.65098"/>
<path d="M40.3765 68.7216L34.8902 74.2471" stroke="black" stroke-width="2.65098"/>
<path d="M66.4733 68.8112L68.5177 73.5137" stroke="black" stroke-width="2.65098"/>
<line x1="45.3726" y1="69.9451" x2="45.3726" y2="73.6157" stroke="black" stroke-width="2.65098"/>
<path d="M23.2471 74.2274H74.2275" stroke="black" stroke-width="2.65098" stroke-linecap="round"/>
<path d="M74.2007 74.3294L74.2007 76.7502" stroke="black" stroke-width="2.65098" stroke-linecap="round"/>
<path d="M74.2274 76.8784H78.3058" stroke="black" stroke-width="2.65098" stroke-linecap="round"/>
<path d="M78.3059 76.8784L78.102 81.9765" stroke="black" stroke-width="2.65098" stroke-linecap="round"/>
<defs>
<linearGradient id="paint0_linear_4_57" x1="194" y1="72" x2="194" y2="41" gradientUnits="userSpaceOnUse">
<stop stop-color="white" stop-opacity="0"/>
<stop offset="1" stop-color="white" stop-opacity="0.38"/>
</linearGradient>
<linearGradient id="paint1_linear_4_57" x1="194" y1="99" x2="194" y2="77" gradientUnits="userSpaceOnUse">
<stop stop-color="#BBB3B3" stop-opacity="0"/>
<stop offset="1" stop-color="white" stop-opacity="0.46"/>
</linearGradient>
</defs>
</svg>
