<svg width="105" height="100" viewBox="0 0 105 100" fill="none" xmlns="http://www.w3.org/2000/svg">
<path d="M14 92L17.5 87L19.9421 84.2526C20.9772 83.0882 22.1447 82.0487 23.421 81.1553L24.9181 80.1073C25.9702 79.3708 27.0909 78.7374 28.2646 78.2158L30.0304 77.4309C30.6697 77.1468 31.3615 77 32.0611 77H95.3596C95.6849 77 95.9236 77.3057 95.8447 77.6213L95.1331 80.4675C95.0446 80.8214 94.9177 81.1646 94.7545 81.4909L93 85L89 92M103 98C102.779 98 102.558 98 102.342 98C100.858 98 99.4507 97.3409 98.5008 96.2009L95.2025 92.243C95.107 92.1284 94.9253 92.1495 94.8586 92.2829L93.506 94.988C92.583 96.834 90.6963 98 88.6325 98V98C86.4328 98 84.4489 96.6774 83.6029 94.6469L82.6423 92.3414C82.5838 92.2012 82.3902 92.1882 82.3136 92.3195L80.3992 95.6014C79.5328 97.0867 77.9426 98 76.2231 98V98C74.2714 98 72.511 96.8264 71.7603 95.0248L70.6423 92.3414C70.5838 92.2012 70.3902 92.1882 70.3136 92.3195L68.4563 95.5036C67.5545 97.0494 65.8995 98 64.1099 98V98C62.2039 98 60.4616 96.9232 59.6092 95.2185L58.1824 92.3647C58.1072 92.2144 57.8928 92.2144 57.8176 92.3647L56.506 94.988C55.583 96.834 53.6963 98 51.6325 98V98C49.4328 98 47.4489 96.6774 46.6029 94.6469L45.6679 92.403C45.6057 92.2537 45.3943 92.2537 45.3321 92.403L44.3971 94.6469C43.5511 96.6774 41.5672 98 39.3675 98V98C37.3037 98 35.417 96.834 34.494 94.988L33.1824 92.3647C33.1072 92.2144 32.8928 92.2144 32.8176 92.3647L31.3416 95.3167C30.5194 96.9612 28.8386 98 27 98V98C25.1614 98 23.4806 96.9612 22.6584 95.3167L21.1824 92.3647C21.1072 92.2144 20.8928 92.2144 20.8176 92.3647L19.438 95.1239C18.5567 96.8866 16.7552 98 14.7845 98V98C13.0449 98 11.4204 97.1306 10.4555 95.6832L8.242 92.363C8.13417 92.2013 7.89183 92.2163 7.80489 92.3902L6.34164 95.3167C5.51939 96.9612 3.8386 98 2 98V98" stroke="black" stroke-width="4"/>
<path d="M55 54H37.6157M37.6157 54L54.9 2.25M37.6157 54L34 65H58.0806M58.0806 65L58.0164 68.9839C58.0074 69.5424 58.4577 70 59.0163 70H63M58.0806 65L58.1613 60M71 60H58.1613M58.1613 60L59 8L77.2792 41.4376C78.7566 44.1401 79.9811 46.9733 80.9371 49.9011L84.2347 60M74 60H84.2347M84.2347 60L87.5 70H63M63 70V76" stroke="black" stroke-width="4"/>
<circle cx="2" cy="98" r="2" fill="#060606"/>
<circle cx="103" cy="98" r="2" fill="#040404"/>
<circle cx="55" cy="2" r="2" fill="#080808"/>
<path d="M37 21H31.5M6 21H11M8 16L11 21M11 21L8 26M11 21H16.25M21.5 21L24.0714 16.5M21.5 21L18.9286 16.5M21.5 21H16.25M21.5 21L18.9286 25.5M21.5 21L24.0714 25.5M21.5 21H26.5M13.5 7L16.3571 12M29.5 7L26.6429 12M29.5 35L26.6429 30M13.5 35L16.3571 30M35 16L31.5 21M31.5 21L35 27M31.5 21H26.6429M23.5 35L26.6429 30M26.6429 30H32M26.6429 30L24.0714 25.5M19.5 35L16.3571 30M16.3571 30H11M16.3571 30L18.9286 25.5M11 12H16.3571M16.3571 12L19.5 7M16.3571 12L18.9286 16.5M32 12H26.6429M26.6429 12L23.5 7M26.6429 12L24.0714 16.5M24.0714 16.5H30L26.5 21M24.0714 16.5C23.2143 14.8333 21.5 11 21.5 11L18.9286 16.5M18.9286 16.5H13L16.25 21M16.25 21L13 25.5H18.9286M18.9286 25.5L21.5 31L24.0714 25.5M24.0714 25.5H30L26.6429 21M26.6429 21H26.5" stroke="black"/>
<path d="M37 56H31.5M6 56H11M8 51L11 56M11 56L8 61M11 56H16.25M21.5 56L24.0714 51.5M21.5 56L18.9286 51.5M21.5 56H16.25M21.5 56L18.9286 60.5M21.5 56L24.0714 60.5M21.5 56H26.5M13.5 42L16.3571 47M29.5 42L26.6429 47M29.5 70L26.6429 65M13.5 70L16.3571 65M35 51L31.5 56M31.5 56L35 62M31.5 56H26.6429M23.5 70L26.6429 65M26.6429 65H32M26.6429 65L24.0714 60.5M19.5 70L16.3571 65M16.3571 65H11M16.3571 65L18.9286 60.5M11 47H16.3571M16.3571 47L19.5 42M16.3571 47L18.9286 51.5M32 47H26.6429M26.6429 47L23.5 42M26.6429 47L24.0714 51.5M24.0714 51.5H30L26.5 56M24.0714 51.5C23.2143 49.8333 21.5 46 21.5 46L18.9286 51.5M18.9286 51.5H13L16.25 56M16.25 56L13 60.5H18.9286M18.9286 60.5L21.5 66L24.0714 60.5M24.0714 60.5H30L26.6429 56M26.6429 56H26.5" stroke="black"/>
</svg>
