<svg width="102" height="89" viewBox="0 0 102 89" fill="none" xmlns="http://www.w3.org/2000/svg">
<path d="M50.5002 22.5V22.5C40.0068 22.5 31.5002 31.0066 31.5002 41.5V42M50.5002 22.5V22.5C60.9937 22.5 69.5003 31.0066 69.5003 41.5V42M50.5002 22.5V0M31.5002 42C31.1002 42 16.3336 42 9.00024 42M31.5002 42L31.6353 43.4854C31.8758 46.1309 32.6823 48.6936 34.0002 51V51M69.5003 42C69.5003 42 91.6003 42 92.0003 42M69.5003 42L69.4253 42.7492C69.1432 45.5711 68.4961 48.3446 67.5003 51V51M23.0002 14L37.0002 28M78.0003 14L64.0002 28M18.0002 51L20.1177 54.9704C21.2763 57.1429 23.538 58.5 26.0001 58.5V58.5C28.4621 58.5 30.7237 57.1431 31.8824 54.9707L34.0002 51M34.0002 51L37.1132 55.6697C38.292 57.4379 40.2765 58.5 42.4016 58.5V58.5C44.634 58.5 46.7028 57.3287 47.8515 55.4144L49.762 52.2303C50.0964 51.673 50.904 51.6731 51.2384 52.2303L53.0995 55.3323C54.2786 57.2975 56.4023 58.5 58.694 58.5V58.5C60.7722 58.5 62.7261 57.5099 63.9551 55.8341L67.5003 51M67.5003 51L70.4131 55.855C71.3976 57.4959 73.1709 58.5 75.0845 58.5V58.5C76.906 58.5 78.6069 57.5897 79.6173 56.0742L82.2131 52.1807C82.5876 51.619 83.4129 51.619 83.7874 52.1807L86.0586 55.5877C87.2715 57.4071 89.3134 58.5 91.5001 58.5V58.5C93.6867 58.5 95.7285 57.4072 96.9415 55.588L100 51M84.5003 66L80.5864 70.6255C79.5804 71.8143 78.1021 72.5 76.5448 72.5V72.5C74.9365 72.5 73.4154 71.7689 72.4107 70.5131L68.7666 65.9582C68.4039 65.5049 67.6957 65.5705 67.4225 66.0827L65.8824 68.9706C64.7237 71.143 62.4621 72.5 60 72.5V72.5C57.5379 72.5 55.2763 71.143 54.1176 68.9706L52.6267 66.1751C52.3433 65.6437 51.5953 65.607 51.2613 66.1081L48.8868 69.6698C47.708 71.438 45.7236 72.5 43.5985 72.5V72.5C41.366 72.5 39.2972 71.3287 38.1486 69.4143L36.2382 66.2304C35.9038 65.6731 35.0962 65.6731 34.7618 66.2304L32.9985 69.1693C31.7588 71.2357 29.5258 72.5 27.1161 72.5V72.5C24.5827 72.5 22.2555 71.1037 21.0633 68.8684L19.6897 66.293C19.3954 65.7413 18.6046 65.7414 18.3104 66.2931L16.9325 68.8768C15.7432 71.107 13.4215 72.5 10.894 72.5V72.5C8.47984 72.5 6.25115 71.2222 4.91467 69.2117C3.39898 66.9316 2.00012 65 2.00012 65M76 79L71.6447 85.17C70.6133 86.6311 68.9364 87.5 67.148 87.5V87.5C65.1976 87.5 63.3928 86.4678 62.4039 84.7866L59.8269 80.4058C59.456 79.7752 58.544 79.7752 58.1731 80.4058L55.5591 84.8495C54.5931 86.4917 52.8302 87.5 50.9249 87.5V87.5C49.1012 87.5 47.4018 86.5755 46.411 85.0443L43.3396 80.2975C42.9455 79.6885 42.0545 79.6885 41.6604 80.2975L38.6694 84.92C37.6285 86.5287 35.8431 87.5 33.927 87.5V87.5C32.0917 87.5 30.3708 86.6083 29.3124 85.1089L25 79" stroke="black" stroke-width="3"/>
</svg>
