<svg width="47" height="52" viewBox="0 0 47 52" fill="none" xmlns="http://www.w3.org/2000/svg">
<rect x="12" y="12" width="35" height="40" fill="#BFB8B2"/>
<g clip-path="url(#clip0_61_31)">
<path d="M22.2488 4.36426C12.2182 4.36426 4.05811 12.5249 4.05811 22.555C4.05811 32.585 12.2188 40.7457 22.2488 40.7457C32.2794 40.7457 40.4401 32.585 40.4401 22.555C40.4401 12.5249 32.2794 4.36426 22.2488 4.36426ZM22.2488 38.7958C13.2935 38.7958 6.00746 31.5103 6.00746 22.555C6.00746 13.5996 13.2935 6.31361 22.2488 6.31361C31.2042 6.31361 38.4897 13.5996 38.4897 22.555C38.4897 31.5103 31.2042 38.7958 22.2488 38.7958Z" fill="black"/>
<path d="M26.8456 19.6001L22.9221 23.5237V9.56794C22.9221 9.02951 22.4853 8.59326 21.9468 8.59326C21.4084 8.59326 20.9722 9.02951 20.9722 9.56794V25.8769C20.9722 25.9412 20.9787 26.0055 20.9916 26.0688C20.997 26.0964 21.0073 26.1218 21.0154 26.1488C21.0251 26.1828 21.0333 26.2174 21.0473 26.251C21.0608 26.2834 21.0792 26.3126 21.096 26.3434C21.1095 26.3688 21.1208 26.3948 21.137 26.4191C21.2084 26.5261 21.3008 26.618 21.4079 26.6899C21.4279 26.7034 21.4495 26.7121 21.47 26.7234C21.5046 26.7429 21.5382 26.7634 21.5755 26.7791C21.6047 26.791 21.6355 26.798 21.6652 26.8072C21.696 26.8164 21.7252 26.8283 21.7571 26.8343C21.8198 26.8467 21.8836 26.8537 21.9474 26.8537C22.0112 26.8537 22.075 26.8472 22.1377 26.8343C22.1696 26.8278 22.1993 26.8164 22.2301 26.8067C22.2598 26.7975 22.2901 26.791 22.3193 26.7791C22.3571 26.7634 22.3917 26.7424 22.4269 26.7224C22.4469 26.711 22.4674 26.7029 22.4869 26.6899C22.5415 26.6537 22.5923 26.6126 22.6377 26.5661L28.2247 20.9792C28.6052 20.5986 28.6052 19.9812 28.2247 19.6007C27.8436 19.219 27.2267 19.219 26.8456 19.6001Z" fill="black"/>
<path d="M22.4997 0C10.0933 0 0 10.0933 0 22.5003C0 34.9073 10.0933 45 22.4997 45C34.9062 45 45 34.9067 45 22.5003C45 10.0938 34.9062 0 22.4997 0ZM22.4997 43.0496C11.1685 43.0496 1.94935 33.831 1.94935 22.4997C1.94935 11.1685 11.168 1.94935 22.4997 1.94935C33.8315 1.94935 43.0496 11.1685 43.0496 22.4997C43.0496 33.831 33.831 43.0496 22.4997 43.0496Z" fill="black"/>
</g>
<defs>
<clipPath id="clip0_61_31">
<rect width="45" height="45" fill="white"/>
</clipPath>
</defs>
</svg>
